<svg width="60" height="60" xmlns="http://www.w3.org/2000/svg" fill="none">

 <g>
  <title>Layer 1</title>
  <path id="svg_2" d="m20.97925,38.56148l16.92024,0c2.43894,-0.00532 4.10281,-2.42325 4.09468,-4.91075l0,-1.67259c4.82879,-0.00447 8.33215,-4.27776 8.33034,-9.26064c0.00181,-5.07161 -3.43278,-9.2383 -7.43054,-9.23468l-26.08053,0l0,20.16834c0.00379,2.73879 2.00501,4.90543 4.1658,4.91033zm21.01439,-21.28496l0,0l0.8998,0c3.30824,-0.00617 4.36941,3.68179 4.35352,5.46864c0.00325,2.88517 -1.80953,5.65226 -5.25333,5.38374l0,-10.85238zm-34.50383,22.51307c0.00307,3.72796 2.41403,5.45672 4.35461,5.46736l35.00112,0c2.31476,-0.01064 4.3436,-2.15601 4.35389,-5.46736l-43.70961,0z" opacity="NaN" fill="#444"/>
 </g>
</svg>